<svg width="17" height="20" viewBox="0 0 17 20" fill="none" xmlns="http://www.w3.org/2000/svg">
<path d="M13.6007 10.6254C13.6096 9.85999 13.8125 9.10938 14.1905 8.44381C14.5685 7.77824 15.1093 7.2195 15.7621 6.81989C15.3471 6.22904 14.8009 5.74242 14.1662 5.39821C13.5315 5.054 12.8257 4.86159 12.1041 4.83606C10.5464 4.67816 9.06474 5.75299 8.2755 5.75299C7.48576 5.75299 6.2665 4.85925 4.97465 4.88391C4.12682 4.90748 3.29966 5.1509 2.57421 5.59032C1.84876 6.02973 1.24991 6.65008 0.83633 7.39056C-0.92606 10.4507 0.38648 14.9843 2.10397 17.4673C2.94442 18.6812 3.94625 20.0485 5.26174 19.9987C6.52944 19.9488 7.0079 19.1799 8.53848 19.1799C10.0695 19.1799 10.5001 19.9987 11.8393 19.9739C13.2022 19.9488 14.0673 18.735 14.9009 17.5165C15.4976 16.6404 15.9638 15.6822 16.285 14.6721C15.4914 14.3332 14.8144 13.7694 14.3374 13.0503C13.8604 12.3312 13.6044 11.4883 13.6007 10.6254V10.6254ZM11.0839 3.1933C11.8387 2.30799 12.2127 1.16004 12.1242 0C10.9846 0.110543 9.93048 0.652884 9.178 1.51581C8.80255 1.93385 8.51511 2.4232 8.33283 2.9547C8.15054 3.4862 8.07714 4.04897 8.117 4.60944C8.68711 4.61731 9.25136 4.49364 9.76591 4.24803C10.2805 4.00243 10.7315 3.64151 11.0839 3.1933V3.1933Z" fill="#ACACAC"/>
</svg>
