<svg width="139" height="48" viewBox="0 0 139 48" fill="none" xmlns="http://www.w3.org/2000/svg">
<path d="M20.1744 0C9.43621 0 0 7.76239 0 7.76239V28.3565C0 39.1288 9.11083 48 20.1744 48C31.2368 48 40.3478 39.1288 40.3478 28.3565V7.76239C40.3478 7.76239 30.9115 0 20.1744 0ZM34.6536 14.2574L32.2132 16.6337C31.725 16.1584 22.2887 7.28714 9.27352 16.7921L7.15853 14.2574C22.7769 2.85149 34.4914 14.2574 34.6536 14.2574ZM15.4559 36.4356L13.3409 33.7426L21.3131 28.0397L23.4282 30.7327L15.4559 36.4356ZM32.0502 27.5644C32.0502 27.406 30.0981 20.5941 22.1265 19.6436C17.5709 19.0099 13.1782 21.0694 8.94814 25.3465C8.29737 25.9802 8.62276 27.406 9.11083 27.8812C10.0871 28.8317 11.714 27.406 12.3648 26.9307C18.7098 21.0694 24.4039 21.8614 27.3325 24.396C29.1224 25.8218 29.7729 28.0396 29.4476 30.7327C28.7964 34.3763 26.1938 37.3861 22.2887 39.1288L20.9878 35.9604C25.0551 34.2178 26.0308 31.208 26.1938 30.099C26.356 28.8317 26.0308 27.5644 25.2173 26.9307C23.2652 25.3465 19.5233 25.0297 14.8051 29.4653C11.5513 32.6337 8.29737 32 6.83314 30.4158C4.71815 28.5148 4.71815 25.0297 6.50776 23.1287C11.5513 17.901 16.9201 15.6832 22.6148 16.3169C33.0267 17.5842 35.4671 26.4555 35.6301 26.7723L32.0502 27.5644Z" fill="#00AAC2"/>
<path d="M46.9336 40.9361H49.1408C51.2135 40.9361 52.685 39.6531 52.685 37.8499C52.685 36.0472 51.2135 34.7729 49.1408 34.7729H46.9336V40.9361ZM48.2526 39.7341V35.9754H49.3113C50.4867 35.9754 51.3212 36.7556 51.3212 37.8499C51.3212 38.9535 50.4867 39.7341 49.3113 39.7341H48.2526Z" fill="#00AAC2"/>
<path d="M58.3408 40.9361H59.8303L57.318 34.7729H55.8375L53.3252 40.9361H54.8057L55.2004 39.9673H57.9461L58.3408 40.9361ZM55.6581 38.8458L56.5733 36.5941L57.4885 38.8458H55.6581Z" fill="#00AAC2"/>
<path d="M62.0305 40.9361H63.3584V35.9662H65.2786V34.7729H60.1104V35.9662H62.0305V40.9361Z" fill="#00AAC2"/>
<path d="M70.6934 40.9361H72.1829L69.6706 34.7729H68.1901L65.6777 40.9361H67.1582L67.553 39.9673H70.2986L70.6934 40.9361ZM68.0106 38.8458L68.9258 36.5941L69.841 38.8458H68.0106Z" fill="#00AAC2"/>
<path d="M76.3604 40.9361H77.6793V38.9355H79.1328C80.4698 38.9355 81.4568 38.0744 81.4568 36.8545C81.4568 35.6345 80.4698 34.7729 79.1328 34.7729H76.3604V40.9361ZM77.6793 37.7243V35.9841H78.9893C79.6443 35.9841 80.0929 36.325 80.0929 36.8545C80.0929 37.3835 79.6443 37.7243 78.9893 37.7243H77.6793Z" fill="#00AAC2"/>
<path d="M87.9689 40.9361L86.4525 38.7833C87.296 38.487 87.8523 37.7694 87.8523 36.8545C87.8523 35.6345 86.8653 34.7729 85.5284 34.7729H82.7559V40.9361H84.0748V38.9355H85.0528L86.4615 40.9361H87.9689ZM84.0748 35.9841H85.3848C86.0398 35.9841 86.4885 36.325 86.4885 36.8545C86.4885 37.3835 86.0398 37.7243 85.3848 37.7243H84.0748V35.9841Z" fill="#00AAC2"/>
<path d="M92.3423 41.0437C94.1278 41.0437 95.6173 39.5813 95.6173 37.8499C95.6173 36.1189 94.1278 34.6653 92.3423 34.6653C90.5748 34.6653 89.0674 36.1189 89.0674 37.8499C89.0674 39.5813 90.5748 41.0437 92.3423 41.0437ZM92.3423 39.8417C91.3105 39.8417 90.4312 38.9268 90.4312 37.8499C90.4312 36.7827 91.3105 35.8677 92.3423 35.8677C93.3831 35.8677 94.2626 36.7827 94.2626 37.8499C94.2626 38.9268 93.3831 39.8417 92.3423 39.8417Z" fill="#00AAC2"/>
<path d="M98.6603 40.9361H99.9883V35.9662H101.908V34.7729H96.7402V35.9662H98.6603V40.9361Z" fill="#00AAC2"/>
<path d="M108.012 35.9662V34.7729H103.266V40.9361H108.012V39.7428H104.593V38.3881H107.689V37.1953H104.593V35.9662H108.012Z" fill="#00AAC2"/>
<path d="M112.518 41.0437C113.451 41.0437 114.313 40.6398 114.914 40.0119L113.954 39.1508C113.595 39.5634 113.084 39.8417 112.518 39.8417C111.487 39.8417 110.607 38.9268 110.607 37.8499C110.607 36.7827 111.487 35.8677 112.518 35.8677C113.084 35.8677 113.595 36.1456 113.954 36.5582L114.914 35.6971C114.313 35.0604 113.451 34.6653 112.518 34.6653C110.751 34.6653 109.243 36.1189 109.243 37.8499C109.243 39.5813 110.751 41.0437 112.518 41.0437Z" fill="#00AAC2"/>
<path d="M117.803 40.9361H119.131V35.9662H121.051V34.7729H115.883V35.9662H117.803V40.9361Z" fill="#00AAC2"/>
<path d="M122.426 40.9361H123.754V34.7729H122.426V40.9361Z" fill="#00AAC2"/>
<path d="M128.49 41.0437C130.275 41.0437 131.765 39.5813 131.765 37.8499C131.765 36.1189 130.275 34.6653 128.49 34.6653C126.722 34.6653 125.215 36.1189 125.215 37.8499C125.215 39.5813 126.722 41.0437 128.49 41.0437ZM128.49 39.8417C127.458 39.8417 126.579 38.9268 126.579 37.8499C126.579 36.7827 127.458 35.8677 128.49 35.8677C129.531 35.8677 130.41 36.7827 130.41 37.8499C130.41 38.9268 129.531 39.8417 128.49 39.8417Z" fill="#00AAC2"/>
<path d="M133.265 40.9361H134.583V36.9529L137.553 40.9361H138.881V34.7729H137.553V38.7561L134.583 34.7729H133.265V40.9361Z" fill="#00AAC2"/>
<path d="M61.215 25.9638L59.7947 22.4921H52.9302L51.5888 25.9638H46.9336L54.4293 8.21069H58.6112L66.028 25.9638H61.215ZM56.4019 12.9448L54.1137 19.0203H58.6112L56.4019 12.9448Z" fill="white"/>
<path d="M75.1801 26.2793C73.6809 26.2793 72.1818 25.6481 71.3928 24.5435H71.3139V30.3603H67.2109V13.4182H71.1561V14.9173H71.235C72.024 13.8916 73.3653 13.0237 75.259 13.0237C78.8885 13.0237 81.1767 16.1009 81.1767 19.5726C81.0978 23.1232 78.9674 26.2793 75.1801 26.2793ZM74.1544 16.4954C72.2607 16.4954 71.1561 18.1523 71.1561 19.7304C71.1561 21.3874 72.3396 22.9654 74.1544 22.9654C76.1269 22.9654 77.0738 21.3874 77.0738 19.7304C77.1527 18.0734 76.1269 16.4954 74.1544 16.4954Z" fill="white"/>
<path d="M90.1733 26.2793C88.6741 26.2793 87.175 25.6481 86.3859 24.5435H86.307V30.3603H82.2041V13.4182H86.1492V14.9173H86.2281C87.0172 13.8916 88.3585 13.0237 90.2522 13.0237C93.8817 13.0237 96.1699 16.1009 96.1699 19.5726C96.0909 23.1232 93.8817 26.2793 90.1733 26.2793ZM89.1475 16.4954C87.2539 16.4954 86.1492 18.1523 86.1492 19.7304C86.1492 21.3874 87.3328 22.9654 89.1475 22.9654C91.1201 22.9654 92.0669 21.3874 92.0669 19.7304C92.1458 18.0734 91.1201 16.4954 89.1475 16.4954Z" fill="white"/>
<path d="M105.005 17.1266C104.374 16.4953 103.427 16.0219 102.402 16.0219C101.613 16.0219 100.824 16.2586 100.824 17.0477C100.824 17.7578 101.534 17.9156 103.112 18.3101C105.005 18.7046 107.136 19.7304 107.136 22.0974C107.136 25.2535 104.374 26.3582 101.77 26.3582C99.719 26.3582 97.5886 25.648 96.3262 24.4645L98.6143 22.0185C99.3245 22.8076 100.508 23.4388 101.692 23.4388C102.402 23.4388 103.191 23.2021 103.191 22.3341C103.191 21.5451 102.402 21.3084 100.745 20.9139C99.0089 20.5194 97.1152 19.6515 97.1152 17.2844C97.1152 14.2861 99.9557 13.1025 102.323 13.1025C104.216 13.1025 106.11 13.7338 107.373 14.8384L105.005 17.1266Z" fill="white"/>
<path d="M118.026 26.4372C112.581 26.4372 108.479 22.6499 108.479 17.0478C108.479 11.3668 112.66 7.7373 118.105 7.7373C120.63 7.7373 123.312 8.60523 124.732 10.3411L121.813 13.2605C121.024 12.1558 119.604 11.6035 118.184 11.6035C115.185 11.6035 113.055 13.8917 113.055 17.0478C113.055 20.2828 115.106 22.4921 118.105 22.4921C119.762 22.4921 121.103 21.7031 121.892 20.6773L124.89 23.5178C123.312 25.3326 120.945 26.4372 118.026 26.4372Z" fill="white"/>
<path d="M131.99 26.3582C128.203 26.3582 125.047 23.7544 125.047 19.6515C125.047 15.5486 128.203 13.0237 131.99 13.0237C135.778 13.0237 138.934 15.5486 138.934 19.6515C138.934 23.7544 135.778 26.3582 131.99 26.3582ZM131.99 16.4954C130.097 16.4954 129.071 18.0734 129.071 19.6515C129.071 21.2296 130.097 22.8865 132.069 22.8865C134.042 22.8865 135.067 21.2296 135.067 19.6515C134.989 18.0734 133.963 16.4954 131.99 16.4954Z" fill="white"/>
</svg>
