<?xml version="1.0" encoding="iso-8859-1"?>
<!-- Generator: Adobe Illustrator 27.1.1, SVG Export Plug-In . SVG Version: 6.00 Build 0)  -->
<!DOCTYPE svg PUBLIC "-//W3C//DTD SVG 1.1//EN" "http://www.w3.org/Graphics/SVG/1.1/DTD/svg11.dtd" [
	<!ENTITY st0 "fill:url(#SVGID_1_);">
	<!ENTITY st1 "opacity:0.5;fill:url(#SVGID_00000099659564270145817200000017444647823427687055_);">
	<!ENTITY st2 "fill:#FFFFFF;">
	<!ENTITY st3 "fill:url(#SVGID_00000179625428844512221760000009333718195087783348_);">
	<!ENTITY st4 "fill:url(#SVGID_00000173154375269497054810000013675891940751062458_);">
	<!ENTITY st5 "fill:url(#SVGID_00000173149642047896046060000011510715443065789865_);">
	<!ENTITY st6 "fill:url(#SVGID_00000048493432861000296610000013719758411494719895_);">
	<!ENTITY st7 "fill:url(#SVGID_00000032648457976462473570000008084367298993453743_);">
	<!ENTITY st8 "fill:url(#SVGID_00000082338736987192414440000017291144488590744760_);">
	<!ENTITY st9 "fill:url(#SVGID_00000013195382587278065900000012395379351091635881_);">
	<!ENTITY st10 "fill:url(#SVGID_00000015336470335585580170000003910490141341739963_);">
	<!ENTITY st11 "fill:url(#SVGID_00000101083630437513495120000004284637309136356018_);">
	<!ENTITY st12 "fill:url(#SVGID_00000132804385641740078810000003257099595553419399_);">
	<!ENTITY st13 "fill:url(#SVGID_00000046315419339742822260000001050333120866527370_);">
	<!ENTITY st14 "fill:url(#SVGID_00000047033866969502614880000000263037454464543370_);">
	<!ENTITY st15 "fill:url(#SVGID_00000065068804727070308150000004748458693319852932_);">
]>
<svg version="1.1" id="Layer_1" xmlns="http://www.w3.org/2000/svg" xmlns:xlink="http://www.w3.org/1999/xlink" x="0px" y="0px"
	 width="800px" height="240px" viewBox="0 0 800 240" style="enable-background:new 0 0 800 240;" xml:space="preserve">
<g>
	<radialGradient id="SVGID_1_" cx="158.9375" cy="72.0625" r="212.1289" gradientUnits="userSpaceOnUse">
		<stop  offset="0" style="stop-color:#2EC5CE"/>
		<stop  offset="1" style="stop-color:#0F9AFF"/>
	</radialGradient>
	<path style="&st0;" d="M100.003,0C46.774,0,0,38.812,0,38.812v102.971C0,195.644,45.162,240,100.003,240
		C154.838,240,200,195.644,200,141.783V38.812C200,38.812,153.225,0,100.003,0z M171.775,71.287l-12.096,11.881
		c-2.42-2.376-49.196-46.733-113.711,0.792L35.484,71.287C112.903,14.257,170.971,71.287,171.775,71.287z M76.613,182.179
		L66.13,168.713l39.517-28.515l10.485,13.465L76.613,182.179z M158.87,137.823c0-0.793-9.676-34.852-49.191-39.605
		c-22.582-3.168-44.356,7.129-65.324,28.515c-3.226,3.168-1.613,10.297,0.806,12.674c4.839,4.752,12.904-2.377,16.129-4.753
		c31.452-29.307,59.677-25.346,74.194-12.673c8.872,7.129,12.096,18.217,10.485,31.684c-3.229,18.217-16.129,33.267-35.487,41.98
		l-6.448-15.843c20.161-8.712,24.997-23.761,25.806-29.307c0.804-6.336-0.808-12.672-4.84-15.841
		c-9.677-7.921-28.225-9.505-51.612,12.673C57.259,163.168,41.129,160,33.871,152.079c-10.484-9.504-10.484-26.93-1.613-36.435
		c25-26.139,51.613-37.228,79.841-34.059c51.611,6.337,63.708,50.693,64.516,52.277L158.87,137.823z"/>
	
		<linearGradient id="SVGID_00000054977093202407334060000015159714970035775166_" gradientUnits="userSpaceOnUse" x1="183.9929" y1="26.2429" x2="9.0472" y2="201.1885">
		<stop  offset="0" style="stop-color:#2EC5CE"/>
		<stop  offset="1" style="stop-color:#0F9AFF;stop-opacity:0"/>
	</linearGradient>
	<path style="opacity:0.5;fill:url(#SVGID_00000054977093202407334060000015159714970035775166_);" d="M100.003,0
		C46.774,0,0,38.812,0,38.812v102.971C0,195.644,45.162,240,100.003,240C154.838,240,200,195.644,200,141.783V38.812
		C200,38.812,153.225,0,100.003,0z M171.775,71.287l-12.096,11.881c-2.42-2.376-49.196-46.733-113.711,0.792L35.484,71.287
		C112.903,14.257,170.971,71.287,171.775,71.287z M76.613,182.179L66.13,168.713l39.517-28.515l10.485,13.465L76.613,182.179z
		 M158.87,137.823c0-0.793-9.676-34.852-49.191-39.605c-22.582-3.168-44.356,7.129-65.324,28.515
		c-3.226,3.168-1.613,10.297,0.806,12.674c4.839,4.752,12.904-2.377,16.129-4.753c31.452-29.307,59.677-25.346,74.194-12.673
		c8.872,7.129,12.096,18.217,10.485,31.684c-3.229,18.217-16.129,33.267-35.487,41.98l-6.448-15.843
		c20.161-8.712,24.997-23.761,25.806-29.307c0.804-6.336-0.808-12.672-4.84-15.841c-9.677-7.921-28.225-9.505-51.612,12.673
		C57.259,163.168,41.129,160,33.871,152.079c-10.484-9.504-10.484-26.93-1.613-36.435c25-26.139,51.613-37.228,79.841-34.059
		c51.611,6.337,63.708,50.693,64.516,52.277L158.87,137.823z"/>
	<path style="&st2;" d="M378.044,36.632c-3.463,0-6.45,1.082-8.96,3.246c-2.424,2.164-3.636,4.977-3.636,8.44
		c0,3.376,1.212,6.147,3.636,8.311c2.511,2.164,5.497,3.246,8.96,3.246c3.549,0,6.536-1.082,8.96-3.246
		c2.511-2.164,3.765-4.935,3.765-8.311c0-3.463-1.255-6.276-3.765-8.44C384.581,37.714,381.594,36.632,378.044,36.632z"/>
	<path style="&st2;" d="M486.344,36.632c-3.463,0-6.45,1.082-8.96,3.246c-2.424,2.164-3.636,4.977-3.636,8.44
		c0,3.376,1.212,6.147,3.636,8.311c2.511,2.164,5.497,3.246,8.96,3.246c3.549,0,6.536-1.082,8.96-3.246
		c2.511-2.164,3.765-4.935,3.765-8.311c0-3.463-1.255-6.276-3.765-8.44C492.881,37.714,489.894,36.632,486.344,36.632z"/>
	<path style="&st2;" d="M346.569,162.28h7.352l-1.98,13.856l14.938-13.856h9.616l-17.06,15.502l13.618,17.862h-10.272
		l-11.358-15.832l-2.214,15.832h-7.352L346.569,162.28z"/>
	<path style="&st2;" d="M380.612,162.28h22.666l-0.99,6.784h-15.314l-0.848,6.22h14.466l-0.99,6.788h-14.466l-0.944,6.788h16.166
		l-0.944,6.784H375.9L380.612,162.28z"/>
	<path style="&st2;" d="M415.5,181.412l-9.8-19.132h9.14l5.28,12.486l9.282-12.486h8.718l-15.268,19.132l-1.98,14.232h-7.352
		L415.5,181.412z"/>
	<g>
		
			<linearGradient id="SVGID_00000119796239099530770120000009639034676697187740_" gradientUnits="userSpaceOnUse" x1="788.7181" y1="63.9728" x2="48.4681" y2="219.2228">
			<stop  offset="0" style="stop-color:#2EC5CE"/>
			<stop  offset="1" style="stop-color:#0F9AFF"/>
		</linearGradient>
		<path style="fill:url(#SVGID_00000119796239099530770120000009639034676697187740_);" d="M241.52,168.784H232v-6.504h26.388v6.504
			h-9.516v26.86h-7.352V168.784z"/>
		
			<linearGradient id="SVGID_00000041285732751258071940000009487307008729262264_" gradientUnits="userSpaceOnUse" x1="790.2424" y1="71.2411" x2="49.9924" y2="226.4911">
			<stop  offset="0" style="stop-color:#2EC5CE"/>
			<stop  offset="1" style="stop-color:#0F9AFF"/>
		</linearGradient>
		<path style="fill:url(#SVGID_00000041285732751258071940000009487307008729262264_);" d="M262.125,162.28h7.352v12.44h14.278
			v-12.44h7.352v33.364h-7.352v-14.42h-14.278v14.42h-7.352V162.28z"/>
		
			<linearGradient id="SVGID_00000145035366414668483480000016554799151774798243_" gradientUnits="userSpaceOnUse" x1="791.6471" y1="77.9385" x2="51.3971" y2="233.1885">
			<stop  offset="0" style="stop-color:#2EC5CE"/>
			<stop  offset="1" style="stop-color:#0F9AFF"/>
		</linearGradient>
		<path style="fill:url(#SVGID_00000145035366414668483480000016554799151774798243_);" d="M298.198,162.28h22.666v6.784H305.55
			v6.22h14.466v6.788H305.55v6.788h16.162v6.784h-23.514V162.28z"/>
		
			<linearGradient id="SVGID_00000121277016479672099520000008502977226480618920_" gradientUnits="userSpaceOnUse" x1="797.7667" y1="107.1177" x2="57.5167" y2="262.3677">
			<stop  offset="0" style="stop-color:#2EC5CE"/>
			<stop  offset="1" style="stop-color:#0F9AFF"/>
		</linearGradient>
		<path style="fill:url(#SVGID_00000121277016479672099520000008502977226480618920_);" d="M456.288,168.784h-9.52v-6.504h26.388
			v6.504h-9.516v26.86h-7.352V168.784z"/>
		
			<linearGradient id="SVGID_00000142143002024670204170000000117892948577555105_" gradientUnits="userSpaceOnUse" x1="799.3636" y1="114.7317" x2="59.1136" y2="269.9817">
			<stop  offset="0" style="stop-color:#2EC5CE"/>
			<stop  offset="1" style="stop-color:#0F9AFF"/>
		</linearGradient>
		<path style="fill:url(#SVGID_00000142143002024670204170000000117892948577555105_);" d="M493.106,161.432
			c10.414,0,18,6.834,18,17.528c0,10.698-7.586,17.532-18,17.532s-18-6.834-18-17.532
			C475.106,168.266,482.692,161.432,493.106,161.432z M493.106,189.708c6.266,0,10.368-4.524,10.368-10.748
			c0-6.22-4.102-10.744-10.368-10.744s-10.368,4.524-10.368,10.744C482.738,185.184,486.84,189.708,493.106,189.708z"/>
		
			<linearGradient id="SVGID_00000058550759161686702600000010003294908328570280_" gradientUnits="userSpaceOnUse" x1="801.1577" y1="123.2861" x2="60.9076" y2="278.5361">
			<stop  offset="0" style="stop-color:#2EC5CE"/>
			<stop  offset="1" style="stop-color:#0F9AFF"/>
		</linearGradient>
		<path style="fill:url(#SVGID_00000058550759161686702600000010003294908328570280_);" d="M538.28,181.412l-12.536-19.132h9.144
			l7.068,12.486l7.494-12.486h8.718l-12.536,19.132v14.232h-7.352V181.412z"/>
		
			<linearGradient id="SVGID_00000034812062134981513750000010707172709449111954_" gradientUnits="userSpaceOnUse" x1="802.8916" y1="131.5538" x2="62.6416" y2="286.8038">
			<stop  offset="0" style="stop-color:#2EC5CE"/>
			<stop  offset="1" style="stop-color:#0F9AFF"/>
		</linearGradient>
		<path style="fill:url(#SVGID_00000034812062134981513750000010707172709449111954_);" d="M576.844,161.432
			c10.414,0,18,6.834,18,17.528c0,10.698-7.586,17.532-18,17.532s-18-6.834-18-17.532
			C558.844,168.266,566.43,161.432,576.844,161.432z M576.844,189.708c6.266,0,10.368-4.524,10.368-10.748
			c0-6.22-4.102-10.744-10.368-10.744s-10.368,4.524-10.368,10.744C566.476,185.184,570.578,189.708,576.844,189.708z"/>
		
			<linearGradient id="SVGID_00000008860858836745534540000001713956944569090748_" gradientUnits="userSpaceOnUse" x1="804.2863" y1="138.2041" x2="64.0363" y2="293.4541">
			<stop  offset="0" style="stop-color:#2EC5CE"/>
			<stop  offset="1" style="stop-color:#0F9AFF"/>
		</linearGradient>
		<path style="fill:url(#SVGID_00000008860858836745534540000001713956944569090748_);" d="M627.996,182.778
			c0,7.87-4.808,13.714-14.044,13.714c-9.282,0-14.09-5.844-14.09-13.714V162.28h7.352v20.218c0,4.098,2.828,7.21,6.738,7.21
			c3.864,0,6.692-3.112,6.692-7.21V162.28h7.352V182.778z"/>
		
			<linearGradient id="SVGID_00000023259751179927519120000009632065540476031923_" gradientUnits="userSpaceOnUse" x1="805.8973" y1="145.8853" x2="65.6473" y2="301.1353">
			<stop  offset="0" style="stop-color:#2EC5CE"/>
			<stop  offset="1" style="stop-color:#0F9AFF"/>
		</linearGradient>
		<path style="fill:url(#SVGID_00000023259751179927519120000009632065540476031923_);" d="M634.8,162.28h12.912
			c6.834,0,12.582,2.356,12.582,10.13c0,4.666-2.494,8.296-7.21,9.144l8.484,14.09h-8.814l-6.972-13.338h-3.63v13.338H634.8V162.28z
			 M642.152,176.086h4.336c2.686,0,6.174-0.092,6.174-3.722c0-3.346-3.016-3.864-5.702-3.864h-4.808V176.086z"/>
		
			<linearGradient id="SVGID_00000082339292224214128930000005456264969600416672_" gradientUnits="userSpaceOnUse" x1="807.5157" y1="153.6024" x2="67.2658" y2="308.8524">
			<stop  offset="0" style="stop-color:#2EC5CE"/>
			<stop  offset="1" style="stop-color:#0F9AFF"/>
		</linearGradient>
		<path style="fill:url(#SVGID_00000082339292224214128930000005456264969600416672_);" d="M679.31,162.28h11.028
			c10.744,0,19.746,4.57,19.746,16.776c0,10.79-8.814,16.588-18.756,16.588H679.31V162.28z M686.662,188.86h3.818
			c6.834,0,11.968-2.594,11.968-10.18c0-6.55-5.23-9.616-11.45-9.616h-4.336V188.86z"/>
		
			<linearGradient id="SVGID_00000017517997389287075820000016946064256320712836_" gradientUnits="userSpaceOnUse" x1="809.613" y1="163.602" x2="69.363" y2="318.852">
			<stop  offset="0" style="stop-color:#2EC5CE"/>
			<stop  offset="1" style="stop-color:#0F9AFF"/>
		</linearGradient>
		<path style="fill:url(#SVGID_00000017517997389287075820000016946064256320712836_);" d="M726.078,162.28h6.078l14.516,33.364
			h-8.296l-2.874-7.068h-12.958l-2.782,7.068h-8.104L726.078,162.28z M728.906,171.988l-4.056,10.368h8.154L728.906,171.988z"/>
		
			<linearGradient id="SVGID_00000147910349723143162420000006486016600105401769_" gradientUnits="userSpaceOnUse" x1="810.2321" y1="166.5543" x2="69.9821" y2="321.8043">
			<stop  offset="0" style="stop-color:#2EC5CE"/>
			<stop  offset="1" style="stop-color:#0F9AFF"/>
		</linearGradient>
		<path style="fill:url(#SVGID_00000147910349723143162420000006486016600105401769_);" d="M752.155,168.784h-9.52v-6.504h26.388
			v6.504h-9.516v26.86h-7.352V168.784z"/>
		
			<linearGradient id="SVGID_00000101096193242864616120000003531386228125704864_" gradientUnits="userSpaceOnUse" x1="811.8598" y1="174.3152" x2="71.6098" y2="329.5652">
			<stop  offset="0" style="stop-color:#2EC5CE"/>
			<stop  offset="1" style="stop-color:#0F9AFF"/>
		</linearGradient>
		<path style="fill:url(#SVGID_00000101096193242864616120000003531386228125704864_);" d="M779.406,162.28h6.078L800,195.644
			h-8.296l-2.874-7.068h-12.958l-2.782,7.068h-8.104L779.406,162.28z M782.234,171.988l-4.056,10.368h8.154L782.234,171.988z"/>
	</g>
	<g>
		<path style="&st2;" d="M286.151,42.578c-5.368-2.511-12.207-3.766-20.518-3.766h-8.44h-9.09H232v90.901h25.193V99.585h8.44
			c8.311,0,15.15-1.212,20.518-3.636c5.454-2.424,9.479-5.93,12.076-10.518c2.684-4.588,4.026-9.999,4.026-16.232
			c0-6.32-1.342-11.73-4.026-16.232C295.631,48.464,291.605,45.002,286.151,42.578z M274.854,76.73
			c-2.164,1.732-5.238,2.598-9.22,2.598h-8.44V59.199h8.44c3.983,0,7.056,0.866,9.22,2.598c2.164,1.731,3.246,4.198,3.246,7.401
			C278.1,72.488,277.017,74.999,274.854,76.73z"/>
		<path style="&st2;" d="M354.846,70.005c-1.991-1.039-4.069-1.558-6.233-1.558c-3.463,0-6.796,1.125-9.999,3.376
			c-2.261,1.57-4.09,3.695-5.713,6.086v-7.903h-21.946v59.734H332.9v-27.4c0-2.857,0.39-5.238,1.168-7.142
			c0.866-1.905,2.034-3.334,3.507-4.285c1.472-0.952,3.073-1.429,4.804-1.429c1.732,0,3.16,0.346,4.285,1.039
			c1.212,0.606,2.295,1.429,3.246,2.467l9.35-19.349C358.309,72.17,356.837,70.958,354.846,70.005z"/>
		<rect x="367.266" y="70.005" style="&st2;" width="21.557" height="59.734"/>
		<rect x="475.566" y="70.005" style="&st2;" width="21.557" height="59.734"/>
		<path style="&st2;" d="M560.007,36.502c-7.532,0-14.458,1.125-20.778,3.376c-6.32,2.251-11.73,5.497-16.232,9.739
			c-4.501,4.242-8.008,9.307-10.518,15.193c-2.424,5.8-3.636,12.294-3.636,19.479s1.212,13.722,3.636,19.608
			c2.511,5.8,6.017,10.822,10.518,15.064c4.502,4.242,9.913,7.489,16.232,9.74c6.32,2.25,13.246,3.376,20.778,3.376
			c6.666,0,12.12-0.822,16.362-2.467c4.329-1.732,8.268-3.896,11.818-6.493V96.626c-1.905,1.991-4.112,3.896-6.623,5.714
			c-2.51,1.732-5.367,3.16-8.571,4.285c-3.203,1.125-6.969,1.688-11.298,1.688c-4.588,0-8.787-0.909-12.596-2.727
			c-3.809-1.904-6.882-4.631-9.22-8.181c-2.251-3.636-3.376-8.008-3.376-13.115c0-5.108,1.125-9.436,3.376-12.986
			c2.337-3.636,5.411-6.363,9.22-8.181c3.81-1.905,8.008-2.857,12.596-2.857c4.329,0,8.095,0.563,11.298,1.688
			c3.203,1.125,6.06,2.597,8.571,4.415c2.511,1.731,4.719,3.592,6.623,5.584V45.462c-3.549-2.684-7.489-4.848-11.818-6.493
			C572.127,37.324,566.672,36.502,560.007,36.502z"/>
		<path style="&st2;" d="M653.384,72.472c-5.281-2.597-11.297-3.896-18.05-3.896c-6.666,0-12.683,1.299-18.051,3.896
			c-5.281,2.511-9.436,6.104-12.466,10.779c-3.03,4.675-4.545,10.215-4.545,16.622c0,6.32,1.515,11.817,4.545,16.492
			c3.03,4.675,7.186,8.311,12.466,10.908c5.368,2.511,11.384,3.766,18.051,3.766c6.753,0,12.769-1.256,18.05-3.766
			c5.281-2.597,9.437-6.233,12.467-10.908c3.116-4.675,4.675-10.172,4.675-16.492c0-6.407-1.559-11.947-4.675-16.622
			C662.82,78.576,658.665,74.983,653.384,72.472z M645.723,107.015c-1.125,1.905-2.598,3.376-4.415,4.415
			c-1.818,0.952-3.809,1.428-5.974,1.428c-2.164,0-4.155-0.476-5.974-1.428c-1.818-1.039-3.29-2.511-4.415-4.415
			c-1.039-1.991-1.558-4.372-1.558-7.142c0-2.771,0.519-5.108,1.558-7.012c1.125-1.991,2.597-3.507,4.415-4.545
			c1.818-1.039,3.809-1.559,5.974-1.559c2.164,0,4.155,0.52,5.974,1.559c1.818,1.038,3.29,2.553,4.415,4.545
			c1.125,1.904,1.688,4.242,1.688,7.012C647.411,102.643,646.848,105.023,645.723,107.015z"/>
		<path style="&st2;" d="M724.034,70.005c-1.991-1.039-4.069-1.558-6.233-1.558c-3.463,0-6.796,1.125-9.999,3.376
			c-2.261,1.57-4.09,3.695-5.713,6.086v-7.903h-21.946v59.734h21.946v-27.4c0-2.857,0.389-5.238,1.168-7.142
			c0.866-1.905,2.034-3.334,3.507-4.285c1.472-0.952,3.073-1.429,4.804-1.429c1.731,0,3.16,0.346,4.285,1.039
			c1.212,0.606,2.295,1.429,3.246,2.467l9.35-19.349C727.497,72.17,726.025,70.958,724.034,70.005z"/>
		<path style="&st2;" d="M779.743,108.703c-1.299,2.251-3.117,3.982-5.454,5.194c-2.251,1.125-5.021,1.688-8.311,1.688
			c-2.684,0-4.935-0.606-6.752-1.818c-1.818-1.299-3.203-3.117-4.156-5.454c-0.46-1.129-0.786-2.393-1.004-3.765h45.156
			c0.087-0.779,0.129-1.645,0.129-2.598c0.087-1.038,0.13-2.077,0.13-3.116c0-6.493-1.299-11.947-3.896-16.362
			c-2.597-4.502-6.363-7.921-11.298-10.259c-4.935-2.337-11.038-3.506-18.31-3.506s-13.505,1.255-18.699,3.765
			c-5.195,2.511-9.177,6.104-11.947,10.779c-2.771,4.588-4.156,10.129-4.156,16.622c0,6.406,1.429,11.947,4.285,16.621
			c2.857,4.588,6.926,8.182,12.207,10.779c5.368,2.511,11.731,3.766,19.09,3.766c7.964,0,14.674-1.515,20.128-4.546
			c5.541-3.03,9.913-7.618,13.115-13.765L779.743,108.703z M758.965,84.809c1.732-1.212,3.896-1.818,6.493-1.818
			c2.077,0,3.852,0.476,5.324,1.428c1.558,0.866,2.727,2.164,3.506,3.896c0.681,1.293,1.015,2.899,1.16,4.674H754.46
			c0.186-0.892,0.338-1.839,0.609-2.597C755.935,87.882,757.234,86.021,758.965,84.809z"/>
		<polygon style="&st2;" points="468.718,70.4 444.954,70.4 432.358,100.917 419.632,70.4 395.867,70.4 428.209,130.135 
			436.491,130.135 		"/>
	</g>
</g>
</svg>
