<svg width="8" height="7" viewBox="0 0 8 7" fill="none" xmlns="http://www.w3.org/2000/svg">
<path d="M2.39993 7C2.29993 7 2.29993 7 2.19993 7C1.59993 6.9 1.09993 6.6 0.899925 6C0.699925 5.3 0.699926 4.5 1.09993 3.8C1.19993 3.5 1.29993 3.1 1.29993 2.8C1.39993 1.7 1.39993 0.599999 2.19993 0.199999C2.69993 -8.41916e-07 3.39992 0.099999 3.79992 0.399999C3.89992 0.499999 3.99993 0.5 4.09993 0.6C4.29993 0.7 4.49993 0.699999 4.59993 0.699999C4.99993 0.599999 5.39993 0.699999 5.69993 0.999999C5.99993 1.3 6.09993 1.6 6.19993 2C6.19993 2.2 6.29993 2.5 6.39993 2.6C6.89993 3.1 7.09993 3.6 6.99993 3.9C6.89993 4.4 6.39993 4.6 5.89993 4.9C5.39993 5.1 4.89993 5.4 4.49993 5.8C3.99993 6.5 3.19993 6.9 2.39993 7Z" fill="#666666"/>
</svg>
