<svg width="5" height="2" viewBox="0 0 5 2" fill="none" xmlns="http://www.w3.org/2000/svg">
<path d="M2.3998 1.5C1.8998 1.5 1.3998 1.2 0.999804 0.8L0.899804 0.7C0.799804 0.7 0.799805 0.7 0.799805 0.6C0.799805 0.5 0.899804 0.5 0.899804 0.5C0.999804 0.5 0.999804 0.6 1.1998 0.7C1.4998 1.1 1.8998 1.3 2.3998 1.3C2.8998 1.2 3.3998 1.1 3.7998 0.8C3.9998 0.7 4.1998 0.6 4.4998 0.5C4.5998 0.5 4.5998 0.5 4.5998 0.6C4.5998 0.7 4.5998 0.7 4.4998 0.7C4.2998 0.8 4.0998 0.8 3.8998 1C3.3998 1.3 2.8998 1.5 2.3998 1.5Z" fill="#333333"/>
</svg>
