<svg width="14" height="18" viewBox="0 0 14 18" fill="none" xmlns="http://www.w3.org/2000/svg">
<path d="M12.3001 9.80004C11.5001 8.50004 10.3001 7.70004 10.3001 6.10004C10.3001 4.20004 10.5001 0.700044 7.0001 1.00004C3.5001 1.30004 4.5001 5.00004 4.4001 6.30004C4.4001 7.40004 3.9001 8.50004 3.1001 9.40004C3.0001 9.50004 2.9001 9.70004 2.8001 9.80004C1.9001 11.1 0.900099 12.8 1.0001 14.4C1.2001 14.3 1.4001 14.3 1.5001 14.3C2.3001 14.4 2.7001 15.2 3.2001 16.1C3.3001 16.2 3.3001 16.4 3.4001 16.5C3.6001 16.8 3.8001 17.1 4.0001 17.4L4.1001 17.5C5.3001 17.6 5.3001 16.3 3.1001 15C1.1001 13.7 2.5001 11.3 3.2001 10.2C3.3001 10.1 3.3001 10.2 2.9001 11C2.6001 11.6 2.0001 13.1 2.8001 14.2C2.8001 13.4 3.0001 12.6 3.3001 11.8C3.8001 10.8 4.7001 9.00004 4.8001 7.50004C4.7001 7.30004 4.5001 7.00004 4.5001 6.70004C4.5001 6.50004 4.6001 6.30004 4.8001 6.10004C4.9001 6.10004 5.0001 6.00004 5.1001 5.90004C4.9001 5.70004 4.7001 5.40004 4.7001 5.10004C4.7001 4.50004 5.0001 4.00004 5.4001 4.00004C5.8001 4.00004 6.1001 4.40004 6.2001 5.10004C6.2001 5.20004 6.2001 5.20004 6.2001 5.30004C6.4001 5.20004 6.7001 5.20004 6.9001 5.30004V5.20004C6.8001 4.60004 7.2001 4.00004 7.9001 3.90004C8.5001 4.00004 9.0001 4.50004 8.9001 5.10004C8.9001 5.40004 8.8001 5.70004 8.6001 6.00004C8.9001 6.10004 9.1001 6.40004 9.1001 6.70004C9.1001 6.90004 9.0001 7.00004 8.9001 7.20004C9.3001 8.50004 9.7001 9.70004 10.3001 10.9C10.7001 11.7 11.0001 12.5 11.2001 13.4C11.5001 13.4 11.9001 13.5 12.2001 13.7C12.5001 13.9 12.8001 14 13.0001 14.2C13.1001 14.3 13.1001 14.4 13.2001 14.4C13.2001 14.4 13.2001 14.5 13.3001 14.5C13.3001 14.6 13.3001 14.7 13.3001 14.8C13.4001 14.8 13.6001 14.9 13.7001 15C14.2001 13 13.2001 11.1 12.3001 9.80004Z" fill="black"/>
</svg>
