<svg width="28" height="32" viewBox="0 0 28 32" fill="none" xmlns="http://www.w3.org/2000/svg">
<path d="M14.0004 0C6.84159 0 0.550781 5.17492 0.550781 5.17492V18.9043C0.550781 26.0859 6.62467 32 14.0004 32C21.3753 32 27.4493 26.0859 27.4493 18.9043V5.17492C27.4493 5.17492 21.1585 0 14.0004 0ZM23.6532 9.50495L22.0263 11.0891C21.7008 10.7723 15.4099 4.85809 6.73313 11.1947L5.32313 9.50495C15.7354 1.901 23.5451 9.50495 23.6532 9.50495ZM10.8547 24.2904L9.44472 22.4951L14.7595 18.6931L16.1696 20.4885L10.8547 24.2904ZM21.9176 18.3763C21.9176 18.2706 20.6162 13.7294 15.3018 13.0957C12.2647 12.6733 9.33625 14.0462 6.51621 16.8977C6.08236 17.3201 6.29929 18.2706 6.62467 18.5875C7.27549 19.2211 8.36011 18.2706 8.79395 17.9538C13.024 14.0462 16.82 14.5743 18.7724 16.264C19.9657 17.2145 20.3994 18.6931 20.1825 20.4885C19.7484 22.9175 18.0133 24.9241 15.4099 26.0859L14.5427 23.9736C17.2542 22.8119 17.9046 20.8053 18.0133 20.066C18.1214 19.2211 17.9046 18.3763 17.3623 17.9538C16.0609 16.8977 13.5663 16.6865 10.4209 19.6436C8.25164 21.7558 6.08236 21.3334 5.10621 20.2772C3.69621 19.0099 3.69621 16.6865 4.88929 15.4191C8.25164 11.934 11.8309 10.4554 15.6273 10.8779C22.5686 11.7228 24.1955 17.637 24.3042 17.8482L21.9176 18.3763Z" fill="#00AAC2"/>
</svg>
