<svg width="12" height="16" viewBox="0 0 12 16" fill="none" xmlns="http://www.w3.org/2000/svg">
<path d="M5.60009 2.50005C5.70009 2.60005 5.80009 2.60005 6.00009 2.70005C6.10009 2.70005 6.30009 2.80005 6.50009 2.90005C6.50009 2.90005 6.50009 2.90005 6.60009 2.90005C6.80009 2.60005 6.90009 2.30005 6.90009 2.00005C7.00009 1.40005 6.50009 0.800049 5.90009 0.800049C5.30009 0.900049 4.90009 1.50005 4.90009 2.10005V2.20005C5.10009 2.20005 5.40009 2.30005 5.60009 2.50005ZM10.1001 10.5C9.80009 10.3 9.50009 10.3 9.10009 10.2C8.90009 9.30005 8.60009 8.50005 8.20009 7.70005C7.60009 6.50005 7.10009 5.30005 6.80009 4.00005C6.60009 4.30005 6.30009 4.50005 5.90009 4.60005C5.80009 4.70005 5.60009 4.70005 5.50009 4.80005C5.20009 5.00005 4.80009 5.20005 4.40009 5.20005H4.30009C3.90009 5.20005 3.60009 5.00005 3.40009 4.80005C3.30009 4.70005 3.20009 4.60005 3.10009 4.60005C3.00009 4.60005 3.00009 4.50005 2.90009 4.50005C2.80009 6.00005 1.90009 7.70005 1.40009 8.80005C1.10009 9.60005 0.90009 10.4 0.90009 11.2C0.10009 10 0.70009 8.50005 1.00009 7.90005C1.40009 7.10005 1.40009 7.00005 1.30009 7.10005C0.600091 8.20005 -0.79991 10.6 1.20009 11.9C3.30009 13.2 3.40009 14.5 2.20009 14.4C2.30009 14.6 2.50009 14.8 2.60009 14.9C3.80009 15.9 5.50009 16 6.80009 15.2C6.80009 15.1 6.90009 14.9 6.90009 14.8C7.00009 14.5 7.10009 14.1 7.10009 13.8C7.20009 12.7 7.20009 11.6 8.00009 11.2C8.50009 11 9.20009 11.1 9.60009 11.4C9.70009 11.5 9.80009 11.5 9.90009 11.6C10.1001 11.7 10.3001 11.7 10.4001 11.7C10.6001 11.7 10.8001 11.7 11.0001 11.7C11.3001 11.3 10.9001 10.9 10.1001 10.5ZM3.20009 2.80005L3.30009 2.70005C3.50009 2.40005 3.80009 2.30005 4.10009 2.20005C4.10009 2.10005 4.10009 2.10005 4.10009 2.00005C4.10009 1.40005 3.70009 0.900049 3.30009 0.900049C3.00009 1.00005 2.70009 1.50005 2.70009 2.10005C2.70009 2.40005 2.80009 2.70005 3.00009 2.90005C3.10009 2.90005 3.20009 2.80005 3.20009 2.80005Z" fill="#999999"/>
</svg>
