<svg width="9" height="12" viewBox="0 0 9 12" fill="none" xmlns="http://www.w3.org/2000/svg">
<path d="M7.9 10.9C7.5 11.4 6.9 11.7 6.3 11.7C5.7 11.6 5.5 10.8 5.6 10.2C5.7 9.5 6.3 9.5 7.1 9.8C7.9 10.1 8.2 10.5 7.9 10.9ZM2.6 1.6C2.7 1.7 2.9 1.7 3 1.8C3.2 1.6 3.2 1.4 3.2 1.2C3.2 0.8 3 0.5 2.8 0.5C2.6 0.5 2.3 0.8 2.3 1.2C2.3 1.3 2.3 1.4 2.3 1.5C2.4 1.6 2.5 1.6 2.6 1.6ZM0.4 1.8C0.5 1.7 0.6 1.6 0.7 1.5C0.7 1.4 0.7 1.3 0.7 1.2C0.7 0.9 0.5 0.6 0.3 0.7C0.1 0.7 0 1 0 1.3C0.1 1.6 0.3 1.8 0.4 1.8Z" fill="black"/>
</svg>
