<svg width="12" height="16" viewBox="0 0 12 16" fill="none" xmlns="http://www.w3.org/2000/svg">
<path d="M10.5002 0.899929C10.3002 0.799929 10.2002 0.799928 10.0002 0.699928C9.9002 0.699928 9.7002 0.599928 9.6002 0.499928C9.0002 -0.100072 7.9002 -7.1764e-05 7.3002 0.699928L7.2002 0.799929C7.2002 0.799929 7.0002 0.999928 6.8002 1.09993C6.6002 1.29993 6.5002 1.49993 6.5002 1.69993C6.6002 2.09993 6.8002 2.39993 7.2002 2.59993C7.3002 2.69993 7.4002 2.79993 7.5002 2.79993C7.7002 3.09993 8.1002 3.19993 8.4002 3.19993H8.5002C8.9002 3.19993 9.3002 3.09993 9.6002 2.79993C9.7002 2.69993 9.8002 2.59993 10.0002 2.59993C10.5002 2.49993 11.0002 2.09993 11.1002 1.49993C11.1002 1.29993 10.8002 0.999929 10.5002 0.899929ZM10.4002 1.69993C10.2002 1.79993 10.0002 1.79993 9.8002 1.99993C9.4002 2.29993 8.9002 2.49993 8.3002 2.59993C7.8002 2.59993 7.3002 2.29993 6.9002 1.89993L6.8002 1.79993C6.7002 1.79993 6.7002 1.79993 6.7002 1.69993C6.7002 1.59993 6.8002 1.59993 6.8002 1.59993C6.9002 1.59993 6.9002 1.69993 7.1002 1.79993C7.4002 2.19993 7.8002 2.39993 8.3002 2.39993C8.8002 2.29993 9.3002 2.19993 9.7002 1.89993C9.9002 1.79993 10.1002 1.69993 10.4002 1.59993C10.5002 1.49993 10.5002 1.49993 10.4002 1.69993C10.5002 1.69993 10.5002 1.59993 10.4002 1.69993ZM5.4002 15.7999C4.8002 15.7999 4.2002 15.5999 3.7002 15.2999C3.2002 15.0999 2.7002 14.8999 2.1002 14.8999C1.4002 14.7999 0.900195 14.7999 0.600195 14.2999C0.400195 13.8999 0.400195 13.2999 0.600195 12.8999C0.600195 12.6999 0.600195 12.4999 0.600195 12.1999C0.500195 11.7999 0.500195 11.4999 0.700195 11.0999C0.900195 10.7999 1.2002 10.4999 1.6002 10.3999C1.8002 10.3999 2.0002 10.2999 2.1002 10.0999C2.2002 9.99993 2.3002 9.89993 2.3002 9.79993C2.5002 9.29993 3.1002 8.99993 3.6002 8.99993C4.5002 9.09993 5.0002 10.0999 5.5002 11.1999C5.7002 11.4999 5.9002 11.7999 6.1002 12.0999C6.6002 12.7999 7.2002 13.3999 7.1002 14.0999C7.1002 14.5999 6.8002 15.0999 6.3002 15.2999C6.1002 15.6999 5.7002 15.7999 5.4002 15.7999Z" fill="#666666"/>
</svg>
